<?xml version="1.0" encoding="UTF-8"?>
<svg xmlns="http://www.w3.org/2000/svg" xmlns:xlink="http://www.w3.org/1999/xlink" width="5184pt" height="2592.000001pt" viewBox="0 0 5184 2592.000001" version="1.2">
<defs>
<clipPath id="clip1">
  <path d="M 1 0 L 5183 0 L 5183 2591 L 1 2591 Z M 1 0 "/>
</clipPath>
<clipPath id="clip2">
  <path d="M 1 203 L 2893 203 L 2893 2591 L 1 2591 Z M 1 203 "/>
</clipPath>
<clipPath id="clip3">
  <path d="M 1717 1135 L 4481 1135 L 4481 2591 L 1717 2591 Z M 1717 1135 "/>
</clipPath>
</defs>
<g id="surface1">
<g clip-path="url(#clip1)" clip-rule="nonzero">
<path style=" stroke:none;fill-rule:nonzero;fill:rgb(100%,100%,100%);fill-opacity:1;" d="M 1 0 L 5183 0 L 5183 2598.496094 L 1 2598.496094 Z M 1 0 "/>
</g>
<path style=" stroke:none;fill-rule:nonzero;fill:rgb(100%,100%,100%);fill-opacity:1;" d="M 1 0 L 5183 0 L 5183 2591 L 1 2591 Z M 1 0 "/>
<path style=" stroke:none;fill-rule:nonzero;fill:rgb(92.939758%,91.758728%,91.758728%);fill-opacity:1;" d="M 1 0 L 5183 0 L 5183 2591 L 1 2591 Z M 1 0 "/>
<g clip-path="url(#clip2)" clip-rule="nonzero">
<path style=" stroke:none;fill-rule:nonzero;fill:rgb(85.099792%,85.099792%,85.099792%);fill-opacity:1;" d="M -192.785156 2874.847656 L 1349.730469 203.207031 L 2892.25 2874.847656 Z M -192.785156 2874.847656 "/>
</g>
<g clip-path="url(#clip3)" clip-rule="nonzero">
<path style=" stroke:none;fill-rule:nonzero;fill:rgb(85.099792%,85.099792%,85.099792%);fill-opacity:1;" d="M 1717.355469 3528.453125 L 3099.058594 1135.347656 L 4480.757812 3528.453125 Z M 1717.355469 3528.453125 "/>
</g>
<path style=" stroke:none;fill-rule:nonzero;fill:rgb(85.099792%,85.099792%,85.099792%);fill-opacity:1;" d="M 4311.675781 0 C 4304.25 0 4296.828125 0.183594 4289.414062 0.546875 C 4281.996094 0.910156 4274.59375 1.457031 4267.203125 2.183594 C 4259.8125 2.914062 4252.445312 3.820312 4245.101562 4.910156 C 4237.753906 6 4230.441406 7.269531 4223.15625 8.71875 C 4215.875 10.167969 4208.632812 11.792969 4201.429688 13.597656 C 4194.226562 15.402344 4187.070312 17.382812 4179.964844 19.539062 C 4172.859375 21.691406 4165.8125 24.023438 4158.820312 26.523438 C 4151.828125 29.023438 4144.902344 31.695312 4138.042969 34.539062 C 4131.179688 37.378906 4124.394531 40.386719 4117.683594 43.5625 C 4110.96875 46.738281 4104.339844 50.074219 4097.789062 53.574219 C 4091.242188 57.078125 4084.78125 60.734375 4078.414062 64.554688 C 4072.042969 68.371094 4065.769531 72.34375 4059.597656 76.46875 C 4053.421875 80.59375 4047.355469 84.867188 4041.390625 89.289062 C 4035.425781 93.714844 4029.574219 98.28125 4023.832031 102.992188 C 4018.09375 107.703125 4012.472656 112.550781 4006.96875 117.539062 C 4001.46875 122.527344 3996.089844 127.644531 3990.839844 132.894531 C 3985.589844 138.144531 3980.472656 143.523438 3975.484375 149.023438 C 3970.496094 154.527344 3965.648438 160.148438 3960.9375 165.886719 C 3956.226562 171.628906 3951.660156 177.480469 3947.238281 183.445312 C 3942.8125 189.410156 3938.539062 195.476562 3934.414062 201.652344 C 3930.289062 207.824219 3926.316406 214.097656 3922.5 220.46875 C 3918.679688 226.835938 3915.023438 233.296875 3911.523438 239.84375 C 3908.019531 246.394531 3904.683594 253.023438 3901.507812 259.734375 C 3898.332031 266.449219 3895.324219 273.234375 3892.484375 280.097656 C 3889.640625 286.957031 3886.96875 293.882812 3884.46875 300.875 C 3881.96875 307.867188 3879.636719 314.914062 3877.484375 322.019531 C 3875.328125 329.125 3873.347656 336.28125 3871.542969 343.484375 C 3869.738281 350.6875 3868.113281 357.929688 3866.664062 365.210938 C 3865.214844 372.496094 3863.945312 379.808594 3862.855469 387.15625 C 3861.765625 394.5 3860.859375 401.867188 3860.128906 409.257812 C 3859.402344 416.648438 3858.855469 424.050781 3858.492188 431.46875 C 3858.128906 438.882812 3857.945312 446.304688 3857.945312 453.730469 C 3857.945312 461.15625 3858.128906 468.578125 3858.492188 475.996094 C 3858.855469 483.410156 3859.402344 490.816406 3860.128906 498.203125 C 3860.859375 505.59375 3861.765625 512.960938 3862.855469 520.308594 C 3863.945312 527.652344 3865.214844 534.96875 3866.664062 542.25 C 3868.113281 549.53125 3869.738281 556.777344 3871.542969 563.980469 C 3873.347656 571.183594 3875.328125 578.335938 3877.484375 585.441406 C 3879.636719 592.546875 3881.96875 599.597656 3884.46875 606.589844 C 3886.96875 613.582031 3889.640625 620.507812 3892.484375 627.367188 C 3895.324219 634.226562 3898.332031 641.015625 3901.507812 647.726562 C 3904.683594 654.4375 3908.019531 661.070312 3911.523438 667.617188 C 3915.023438 674.167969 3918.679688 680.625 3922.5 686.996094 C 3926.316406 693.363281 3930.289062 699.636719 3934.414062 705.8125 C 3938.539062 711.984375 3942.8125 718.054688 3947.238281 724.019531 C 3951.660156 729.984375 3956.226562 735.835938 3960.9375 741.574219 C 3965.648438 747.316406 3970.496094 752.9375 3975.484375 758.4375 C 3980.472656 763.941406 3985.589844 769.316406 3990.839844 774.566406 C 3996.089844 779.820312 4001.46875 784.9375 4006.96875 789.925781 C 4012.472656 794.910156 4018.09375 799.757812 4023.832031 804.46875 C 4029.574219 809.179688 4035.425781 813.75 4041.390625 818.171875 C 4047.355469 822.59375 4053.421875 826.871094 4059.597656 830.996094 C 4065.769531 835.121094 4072.042969 839.09375 4078.414062 842.910156 C 4084.78125 846.726562 4091.242188 850.386719 4097.789062 853.886719 C 4104.339844 857.386719 4110.96875 860.726562 4117.683594 863.898438 C 4124.394531 867.074219 4131.179688 870.082031 4138.042969 872.925781 C 4144.902344 875.765625 4151.828125 878.4375 4158.820312 880.9375 C 4165.8125 883.441406 4172.859375 885.769531 4179.964844 887.925781 C 4187.070312 890.082031 4194.226562 892.0625 4201.429688 893.863281 C 4208.632812 895.667969 4215.875 897.296875 4223.15625 898.746094 C 4230.441406 900.191406 4237.753906 901.460938 4245.101562 902.550781 C 4252.445312 903.640625 4259.8125 904.550781 4267.203125 905.277344 C 4274.59375 906.003906 4281.996094 906.550781 4289.414062 906.917969 C 4296.828125 907.28125 4304.25 907.460938 4311.675781 907.460938 C 4319.101562 907.460938 4326.523438 907.28125 4333.941406 906.917969 C 4341.355469 906.550781 4348.761719 906.003906 4356.148438 905.277344 C 4363.539062 904.550781 4370.90625 903.640625 4378.253906 902.550781 C 4385.597656 901.460938 4392.914062 900.191406 4400.195312 898.746094 C 4407.476562 897.296875 4414.722656 895.667969 4421.925781 893.863281 C 4429.128906 892.0625 4436.28125 890.082031 4443.386719 887.925781 C 4450.492188 885.769531 4457.542969 883.441406 4464.535156 880.9375 C 4471.527344 878.4375 4478.453125 875.765625 4485.3125 872.925781 C 4492.171875 870.082031 4498.960938 867.074219 4505.671875 863.898438 C 4512.382812 860.726562 4519.015625 857.386719 4525.5625 853.886719 C 4532.113281 850.386719 4538.570312 846.726562 4544.941406 842.910156 C 4551.308594 839.09375 4557.582031 835.121094 4563.757812 830.996094 C 4569.929688 826.871094 4576 822.59375 4581.964844 818.171875 C 4587.929688 813.75 4593.78125 809.179688 4599.519531 804.46875 C 4605.261719 799.757812 4610.882812 794.910156 4616.382812 789.925781 C 4621.886719 784.9375 4627.261719 779.820312 4632.511719 774.566406 C 4637.765625 769.316406 4642.882812 763.941406 4647.871094 758.4375 C 4652.855469 752.9375 4657.703125 747.316406 4662.414062 741.574219 C 4667.125 735.835938 4671.695312 729.984375 4676.117188 724.019531 C 4680.539062 718.054688 4684.816406 711.984375 4688.941406 705.8125 C 4693.066406 699.636719 4697.039062 693.363281 4700.855469 686.996094 C 4704.671875 680.625 4708.332031 674.167969 4711.832031 667.617188 C 4715.332031 661.070312 4718.671875 654.4375 4721.84375 647.726562 C 4725.019531 641.015625 4728.027344 634.226562 4730.871094 627.367188 C 4733.710938 620.507812 4736.382812 613.582031 4738.882812 606.589844 C 4741.386719 599.597656 4743.714844 592.546875 4745.871094 585.441406 C 4748.027344 578.335938 4750.007812 571.183594 4751.808594 563.980469 C 4753.613281 556.777344 4755.242188 549.53125 4756.691406 542.25 C 4758.136719 534.96875 4759.40625 527.652344 4760.496094 520.308594 C 4761.585938 512.960938 4762.496094 505.59375 4763.222656 498.203125 C 4763.949219 490.816406 4764.496094 483.410156 4764.863281 475.996094 C 4765.226562 468.578125 4765.40625 461.15625 4765.40625 453.730469 C 4765.40625 446.304688 4765.226562 438.882812 4764.863281 431.46875 C 4764.496094 424.050781 4763.949219 416.648438 4763.222656 409.257812 C 4762.496094 401.867188 4761.585938 394.5 4760.496094 387.15625 C 4759.40625 379.808594 4758.136719 372.496094 4756.691406 365.210938 C 4755.242188 357.929688 4753.613281 350.6875 4751.808594 343.484375 C 4750.007812 336.28125 4748.027344 329.125 4745.871094 322.019531 C 4743.714844 314.914062 4741.386719 307.867188 4738.882812 300.875 C 4736.382812 293.882812 4733.710938 286.957031 4730.871094 280.097656 C 4728.027344 273.234375 4725.019531 266.449219 4721.84375 259.734375 C 4718.671875 253.023438 4715.332031 246.394531 4711.832031 239.84375 C 4708.332031 233.296875 4704.671875 226.835938 4700.855469 220.46875 C 4697.039062 214.097656 4693.066406 207.824219 4688.941406 201.652344 C 4684.816406 195.476562 4680.539062 189.410156 4676.117188 183.445312 C 4671.695312 177.480469 4667.125 171.628906 4662.414062 165.886719 C 4657.703125 160.148438 4652.855469 154.527344 4647.871094 149.023438 C 4642.882812 143.523438 4637.765625 138.144531 4632.511719 132.894531 C 4627.261719 127.644531 4621.886719 122.527344 4616.382812 117.539062 C 4610.882812 112.550781 4605.261719 107.703125 4599.519531 102.992188 C 4593.78125 98.28125 4587.929688 93.714844 4581.964844 89.289062 C 4576 84.867188 4569.929688 80.59375 4563.757812 76.46875 C 4557.582031 72.34375 4551.308594 68.371094 4544.941406 64.554688 C 4538.570312 60.734375 4532.113281 57.078125 4525.5625 53.574219 C 4519.015625 50.074219 4512.382812 46.738281 4505.671875 43.5625 C 4498.960938 40.386719 4492.171875 37.378906 4485.3125 34.539062 C 4478.453125 31.695312 4471.527344 29.023438 4464.535156 26.523438 C 4457.542969 24.023438 4450.492188 21.691406 4443.386719 19.539062 C 4436.28125 17.382812 4429.128906 15.402344 4421.925781 13.597656 C 4414.722656 11.792969 4407.476562 10.167969 4400.195312 8.71875 C 4392.914062 7.269531 4385.597656 6 4378.253906 4.910156 C 4370.90625 3.820312 4363.539062 2.914062 4356.148438 2.183594 C 4348.761719 1.457031 4341.355469 0.910156 4333.941406 0.546875 C 4326.523438 0.183594 4319.101562 0 4311.675781 0 Z M 4311.675781 0 "/>
</g>
</svg>
